<svg xmlns="http://www.w3.org/2000/svg" width="15" height="11" viewBox="0 0 15 11" fill="none">
<path d="M7.49999 2.65625C7.22398 2.66046 6.95001 2.70321 6.68644 2.7832C6.80836 2.99225 6.87327 3.22828 6.87499 3.46875C6.87499 3.65547 6.83726 3.84037 6.76398 4.01288C6.69069 4.18539 6.58327 4.34213 6.44785 4.47417C6.31243 4.6062 6.15166 4.71094 5.97473 4.78239C5.7978 4.85385 5.60816 4.89062 5.41665 4.89062C5.17001 4.88896 4.92793 4.82567 4.71353 4.7068C4.54437 5.2788 4.56408 5.88819 4.76988 6.44865C4.97568 7.00912 5.35712 7.49225 5.86019 7.8296C6.36325 8.16696 6.96242 8.34143 7.57284 8.32832C8.18326 8.31521 8.77397 8.11517 9.26131 7.75654C9.74864 7.39791 10.1079 6.89888 10.2882 6.33012C10.4685 5.76136 10.4606 5.15171 10.2658 4.58753C10.071 4.02335 9.699 3.53324 9.20261 3.18662C8.70621 2.84001 8.11055 2.65445 7.49999 2.65625ZM14.9094 5.1293C13.4971 2.44271 10.7013 0.625 7.49999 0.625C4.29868 0.625 1.50207 2.44398 0.0906108 5.12955C0.0310383 5.24445 0 5.37139 0 5.50013C0 5.62887 0.0310383 5.75581 0.0906108 5.8707C1.50285 8.55729 4.29868 10.375 7.49999 10.375C10.7013 10.375 13.4979 8.55602 14.9094 5.87045C14.9689 5.75555 15 5.62861 15 5.49987C15 5.37113 14.9689 5.24419 14.9094 5.1293ZM7.49999 9.15625C4.93097 9.15625 2.57577 7.75977 1.30389 5.5C2.57577 3.24023 4.93071 1.84375 7.49999 1.84375C10.0693 1.84375 12.4242 3.24023 13.6961 5.5C12.4245 7.75977 10.0693 9.15625 7.49999 9.15625Z" fill="white"/>
</svg>
